<svg width="33" height="33" viewBox="0 0 33 33" fill="none" xmlns="http://www.w3.org/2000/svg">
<g filter="url(#filter0_d_493_690)">
<path fill-rule="evenodd" clip-rule="evenodd" d="M11.3819 2.86751C11.6922 1.18818 13.0475 0 14.6003 0H18.3997C19.9524 0 21.3078 1.18818 21.6181 2.86751C21.6898 3.25518 22.0083 3.53956 22.3395 3.53956H22.3586L22.3777 3.54047C24.0095 3.61915 25.263 3.83996 26.3095 4.5969C26.9688 5.07381 27.5359 5.6874 27.9779 6.40338C28.5278 7.29419 28.7702 8.31659 28.8865 9.55314C29 10.7613 29 12.2756 29 14.1937V14.3028C29 16.2209 29 17.7353 28.8865 18.9433C28.7702 20.1799 28.5278 21.2023 27.9779 22.0931C27.5359 22.8091 26.9688 23.4227 26.3095 23.8996C25.4915 24.4913 24.5537 24.7522 23.4163 24.8774C22.3027 25 20.9058 25 19.1319 25H13.8681C12.0942 25 10.6973 25 9.58367 24.8774C8.44627 24.7522 7.5085 24.4913 6.69052 23.8996C6.03119 23.4227 5.46401 22.8091 5.02208 22.0931C4.47223 21.2023 4.22972 20.1799 4.11351 18.9433C3.99998 17.7353 3.99999 16.2209 4 14.3028V14.1937C3.99999 12.2756 3.99998 10.7613 4.11351 9.55314C4.22972 8.31659 4.47223 7.29419 5.02208 6.40338C5.46401 5.6874 6.03119 5.07381 6.69052 4.5969C7.73701 3.83996 8.99046 3.61915 10.6224 3.54047L10.6414 3.53956H10.6605C10.9917 3.53956 11.3103 3.25519 11.3819 2.86751ZM14.6003 1.92308C13.8549 1.92308 13.2315 2.49101 13.091 3.25137C12.8635 4.48281 11.8733 5.4511 10.6818 5.46254C9.11363 5.53935 8.27367 5.75174 7.64726 6.20485C7.17801 6.54426 6.77619 6.97962 6.46402 7.48535C6.14292 8.00558 5.94995 8.67083 5.84841 9.75133C5.74528 10.8488 5.74419 12.2636 5.74419 14.2482C5.74419 16.2329 5.74528 17.6477 5.84841 18.7451C5.94995 19.8256 6.14292 20.4909 6.46402 21.0112C6.77619 21.5169 7.17801 21.9523 7.64726 22.2917C8.13276 22.6428 8.754 22.8533 9.75702 22.9638C10.7738 23.0758 12.0836 23.0769 13.916 23.0769H19.084C20.9164 23.0769 22.2262 23.0758 23.243 22.9638C24.246 22.8533 24.8672 22.6428 25.3528 22.2917C25.822 21.9523 26.2238 21.5169 26.5359 21.0112C26.8571 20.4909 27.05 19.8256 27.1516 18.7451C27.2548 17.6477 27.2558 16.2329 27.2558 14.2482C27.2558 12.2636 27.2548 10.8488 27.1516 9.75133C27.05 8.67083 26.8571 8.00558 26.5359 7.48535C26.2238 6.97962 25.822 6.54426 25.3528 6.20485C24.7263 5.75174 23.8864 5.53935 22.3183 5.46254C21.1267 5.4511 20.1365 4.48281 19.9091 3.25137C19.7685 2.49101 19.1451 1.92308 18.3997 1.92308H14.6003ZM16.5 10.8974C15.0551 10.8974 13.8837 12.189 13.8837 13.7821C13.8837 15.3751 15.0551 16.6667 16.5 16.6667C17.9449 16.6667 19.1163 15.3751 19.1163 13.7821C19.1163 12.189 17.9449 10.8974 16.5 10.8974ZM12.1395 13.7821C12.1395 11.1268 14.0918 8.97436 16.5 8.97436C18.9083 8.97436 20.8605 11.1268 20.8605 13.7821C20.8605 16.4373 18.9083 18.5897 16.5 18.5897C14.0918 18.5897 12.1395 16.4373 12.1395 13.7821ZM22.6047 9.9359C22.6047 9.40486 22.9951 8.97436 23.4767 8.97436H24.6395C25.1212 8.97436 25.5116 9.40486 25.5116 9.9359C25.5116 10.4669 25.1212 10.8974 24.6395 10.8974H23.4767C22.9951 10.8974 22.6047 10.4669 22.6047 9.9359Z" fill="#498349"/>
<path d="M14.6006 0.5H18.3994C19.6843 0.5 20.8542 1.48872 21.126 2.95801C21.2334 3.53924 21.7258 4.04004 22.3398 4.04004H22.3535C23.9655 4.11776 25.0939 4.33454 26.0166 5.00195C26.6212 5.43929 27.1441 6.00398 27.5527 6.66602C28.0449 7.46339 28.2757 8.39862 28.3887 9.59961C28.4995 10.779 28.5 12.2664 28.5 14.1934V14.3027C28.5 16.2298 28.4995 17.7171 28.3887 18.8965C28.2757 20.0975 28.0448 21.0327 27.5527 21.8301C27.1441 22.4921 26.6211 23.0568 26.0166 23.4941C25.2963 24.0151 24.4545 24.2605 23.3613 24.3809C22.2813 24.4997 20.9163 24.5 19.1318 24.5H13.8682C12.0838 24.5 10.7187 24.4997 9.63867 24.3809C8.54554 24.2605 7.70362 24.0151 6.9834 23.4941C6.37886 23.0568 5.85582 22.492 5.44727 21.8301C4.95519 21.0327 4.72419 20.0975 4.61133 18.8965C4.5005 17.7171 4.49999 16.2299 4.5 14.3027V14.1934C4.49999 12.2664 4.5005 10.779 4.61133 9.59961C4.72422 8.39866 4.95511 7.46341 5.44727 6.66602C5.85587 6.00403 6.37878 5.4393 6.9834 5.00195C7.79085 4.41791 8.75577 4.17888 10.0645 4.07617L10.6465 4.04004H10.6602C11.2742 4.04004 11.7666 3.53931 11.874 2.95801C12.1457 1.48874 13.3157 0.5 14.6006 0.5ZM14.6006 1.42285C13.5864 1.42285 12.7788 2.19132 12.5996 3.16016C12.407 4.20284 11.5846 4.95418 10.6768 4.96289H10.6572C9.06978 5.04065 8.10464 5.25726 7.35449 5.7998C6.83055 6.17878 6.38356 6.66296 6.03809 7.22266C5.65949 7.8361 5.45546 8.58859 5.35059 9.7041C5.24475 10.8304 5.24414 12.2733 5.24414 14.248C5.24414 16.223 5.24475 17.6657 5.35059 18.792C5.45543 19.9075 5.65957 20.66 6.03809 21.2734C6.38355 21.8332 6.83052 22.3183 7.35449 22.6973C7.9377 23.119 8.65527 23.3456 9.70215 23.4609C10.7527 23.5766 12.095 23.5771 13.916 23.5771H19.084C20.905 23.5771 22.2473 23.5766 23.2979 23.4609C24.3448 23.3456 25.0622 23.1189 25.6455 22.6973C26.1694 22.3183 26.6165 21.8332 26.9619 21.2734L26.9609 21.2725C27.3394 20.659 27.5445 19.9073 27.6494 18.792C27.7553 17.6657 27.7559 16.223 27.7559 14.248C27.7559 12.2733 27.7553 10.8305 27.6494 9.7041C27.5445 8.58867 27.3406 7.83613 26.9619 7.22266C26.6165 6.66292 26.1694 6.17876 25.6455 5.7998C24.8953 5.25729 23.9302 5.04065 22.3428 4.96289H22.3232C21.4154 4.95418 20.593 4.2028 20.4004 3.16016C20.2211 2.19139 19.4137 1.42285 18.3994 1.42285H14.6006ZM16.5 9.47461C18.5873 9.47461 20.3604 11.3561 20.3604 13.7822C20.3603 16.2083 18.5872 18.0898 16.5 18.0898C14.4128 18.0898 12.6397 16.2083 12.6396 13.7822C12.6396 11.3561 14.4127 9.47461 16.5 9.47461ZM16.5 10.3975C14.7342 10.3975 13.3838 11.9601 13.3838 13.7822C13.3839 15.6043 14.7342 17.167 16.5 17.167C18.2658 17.167 19.6161 15.6043 19.6162 13.7822C19.6162 11.9601 18.2658 10.3975 16.5 10.3975ZM23.4766 9.47461H24.6396C24.8002 9.47469 25.0116 9.6339 25.0117 9.93555C25.0117 10.2374 24.8003 10.3974 24.6396 10.3975H23.4766C23.3159 10.3973 23.1045 10.2374 23.1045 9.93555C23.1047 9.63394 23.316 9.47473 23.4766 9.47461Z" stroke="black"/>
</g>
<defs>
<filter id="filter0_d_493_690" x="0" y="0" width="33" height="33" filterUnits="userSpaceOnUse" color-interpolation-filters="sRGB">
<feFlood flood-opacity="0" result="BackgroundImageFix"/>
<feColorMatrix in="SourceAlpha" type="matrix" values="0 0 0 0 0 0 0 0 0 0 0 0 0 0 0 0 0 0 127 0" result="hardAlpha"/>
<feOffset dy="4"/>
<feGaussianBlur stdDeviation="2"/>
<feComposite in2="hardAlpha" operator="out"/>
<feColorMatrix type="matrix" values="0 0 0 0 0 0 0 0 0 0 0 0 0 0 0 0 0 0 0.25 0"/>
<feBlend mode="normal" in2="BackgroundImageFix" result="effect1_dropShadow_493_690"/>
<feBlend mode="normal" in="SourceGraphic" in2="effect1_dropShadow_493_690" result="shape"/>
</filter>
</defs>
</svg>
