<svg width="51" height="51" viewBox="0 0 51 51" fill="none" xmlns="http://www.w3.org/2000/svg">
<path d="M36.5972 6.17477C37.1269 5.16646 38.3739 4.7789 39.3823 5.30856C46.689 9.14661 51.3657 16.7238 51.3657 25.1289C51.3655 33.5425 46.6792 41.1259 39.3608 44.9599C38.3518 45.4885 37.1053 45.0988 36.5767 44.0898C36.0482 43.0808 36.4378 41.8342 37.4468 41.3056C43.4196 38.1764 47.2405 31.9923 47.2407 25.1289C47.2407 18.2723 43.4277 12.0924 37.4644 8.95993C36.4559 8.43023 36.0675 7.18321 36.5972 6.17477ZM26.8569 6.46384C28.4754 5.28542 30.743 5.64226 31.9214 7.26071C32.3727 7.88058 32.6157 8.62774 32.6157 9.3945V40.8691C32.6156 42.871 30.9927 44.4941 28.9907 44.4941C28.225 44.4941 27.4793 44.2509 26.8599 43.8008L15.4458 35.5049C14.9973 35.1788 14.4564 35.0039 13.9019 35.0039H5.55322C2.6884 35.0039 0.365976 32.6811 0.365723 29.8164V20.4414C0.365723 17.5764 2.68825 15.2539 5.55322 15.2539H13.9312C14.4863 15.2539 15.0273 15.0776 15.4761 14.7509L26.8569 6.46384ZM17.9048 18.0849C16.8659 18.8414 15.6346 19.2843 14.3579 19.3652H14.3423L13.9468 19.3779L13.939 19.3789H5.55322C5.01269 19.3789 4.56505 19.7824 4.49854 20.3047L4.49072 20.4531V29.8164C4.49096 30.3588 4.89821 30.8064 5.42334 30.8701L5.58154 30.8789H13.9019C15.1051 30.8789 16.2826 31.1996 17.314 31.8037L17.5181 31.9287L17.5249 31.9326L17.5308 31.9375L17.8579 32.1591L17.8647 32.164L17.8706 32.1679L28.4907 39.8877V10.3759L17.9048 18.0849ZM35.7495 14.4121C36.5062 13.5606 37.8102 13.4835 38.6616 14.2402C41.7502 16.9852 43.5532 20.9141 43.5532 25.1289C43.5531 29.3949 41.7051 33.3662 38.5513 36.1133C37.6923 36.8612 36.3892 36.771 35.6411 35.9121C34.8934 35.0532 34.9836 33.7509 35.8423 33.0029C38.1064 31.0309 39.4281 28.189 39.4282 25.1289C39.4282 22.1053 38.1386 19.2937 35.9214 17.3232C35.07 16.5666 34.9929 15.2635 35.7495 14.4121Z" fill="white" stroke="white"/>
</svg>
