<svg width="30" height="30" viewBox="0 0 30 30" fill="none" xmlns="http://www.w3.org/2000/svg">
<path fill-rule="evenodd" clip-rule="evenodd" d="M6.60001 16.1452C6.61487 17.4478 7.14667 18.6912 8.07837 19.6018C9.01006 20.5123 10.2653 21.0154 11.568 21.0004H13.9752C14.6298 21.0009 15.2557 21.2688 15.708 21.742L16.9908 23.0836C17.1937 23.2891 17.4706 23.4048 17.7594 23.4048C18.0482 23.4048 18.3251 23.2891 18.528 23.0836L20.52 21.0004L21.174 20.2708C21.2945 20.14 21.4258 20.0195 21.5664 19.9108C22.7219 19.0025 23.3975 17.6148 23.4 16.1452V10.2532C23.3677 7.54142 21.1438 5.36903 18.432 5.40036H11.568C8.85626 5.36903 6.63229 7.54142 6.60001 10.2532V16.1452Z" stroke="#498349" stroke-width="2" stroke-linecap="round" stroke-linejoin="round"/>
<path d="M19.4348 15.3894C19.6205 14.9284 19.3973 14.4041 18.9362 14.2184C18.4752 14.0327 17.9508 14.2559 17.7652 14.717L19.4348 15.3894ZM17.5392 16.5004L18.1078 17.1981L18.1111 17.1953L17.5392 16.5004ZM12.4368 16.4632L11.8541 17.1491L11.8582 17.1526L12.4368 16.4632ZM12.2402 14.6778C12.062 14.2138 11.5415 13.9821 11.0775 14.1602C10.6134 14.3384 10.3816 14.8589 10.5598 15.323L12.2402 14.6778ZM12.3 10.2004C12.3 9.70335 11.8971 9.30042 11.4 9.30042C10.9029 9.30042 10.5 9.70335 10.5 10.2004H12.3ZM10.5 11.4004C10.5 11.8975 10.9029 12.3004 11.4 12.3004C11.8971 12.3004 12.3 11.8975 12.3 11.4004H10.5ZM19.5 10.2004C19.5 9.70335 19.097 9.30042 18.6 9.30042C18.103 9.30042 17.7 9.70335 17.7 10.2004H19.5ZM17.7 11.4004C17.7 11.8975 18.103 12.3004 18.6 12.3004C19.097 12.3004 19.5 11.8975 19.5 11.4004H17.7ZM17.7652 14.717C17.5944 15.1408 17.3201 15.5151 16.9673 15.8055L18.1111 17.1953C18.6965 16.7135 19.1516 16.0926 19.4348 15.3894L17.7652 14.717ZM16.9706 15.8027C15.8161 16.7434 14.1562 16.7313 13.0154 15.7738L11.8582 17.1526C13.6606 18.6654 16.2835 18.6845 18.1078 17.1981L16.9706 15.8027ZM13.0194 15.7773C12.6716 15.4818 12.4037 15.1038 12.2402 14.6778L10.5598 15.323C10.8314 16.0305 11.2765 16.6584 11.8541 17.1491L13.0194 15.7773ZM10.5 10.2004V11.4004H12.3V10.2004H10.5ZM17.7 10.2004V11.4004H19.5V10.2004H17.7Z" fill="#498349"/>
</svg>
